# xmcd
#
# Track frame offsets: 
#        150
#        18855
#        32742
#        47475
#        58782
#        76577
#        97160
#        113642
#        131452
#        142232
#
# Disc length: 2173 seconds
#
# Revision: 2
# Processed by: cddbd v1.4PL0 Copyright (c) Steve Scherf et al.
# Submitted via: ExactAudioCopy v0.90b3
#
DISCID=7d087b0a
DTITLE=Tom T. Hall - Songs From Sopchoppy
DYEAR=1900
DGENRE=Country
TTITLE0=St. George Isle
TTITLE1=Water Blue
TTITLE2=Lost In Florida
TTITLE3=Shoes And Dress That Alice Wore
TTITLE4=Sky Blue True
TTITLE5=Raking Up Leaves
TTITLE6=Redneck Riviera
TTITLE7=You Are My Hero
TTITLE8=Little Bitty
TTITLE9=Ships Go Out
EXTD=
EXTT0=
EXTT1=
EXTT2=
EXTT3=
EXTT4=
EXTT5=
EXTT6=
EXTT7=
EXTT8=
EXTT9=
PLAYORDER=
